<svg xmlns="http://www.w3.org/2000/svg" viewBox="0 0 44 64" width="44" height="64">
  <!-- Wijsvinger omhoog -->
  <path d="M 14,4 C 14,1.5 17,0 22,0 C 27,0 30,1.5 30,4 L 30,38 C 30,40 28,42 26,42 L 18,42 C 16,42 14,40 14,38 Z" fill="#d41a1a"/>
  <!-- Handpalm/vuist -->
  <path d="M 6,42 C 6,36 10,32 18,32 L 26,32 C 34,32 38,36 38,42 L 38,54 C 38,59.5 33.5,64 28,64 L 16,64 C 10.5,64 6,59.5 6,54 Z" fill="#d41a1a"/>
  <!-- Schaduw/diepte op vinger -->
  <path d="M 14,4 C 14,1.5 17,0 22,0 C 27,0 30,1.5 30,4 L 30,38 C 30,40 28,42 26,42 L 18,42 C 16,42 14,40 14,38 Z" fill="none" stroke="#a51010" stroke-width="1.5"/>
  <!-- Schaduw/diepte op hand -->
  <path d="M 6,42 C 6,36 10,32 18,32 L 26,32 C 34,32 38,36 38,42 L 38,54 C 38,59.5 33.5,64 28,64 L 16,64 C 10.5,64 6,59.5 6,54 Z" fill="none" stroke="#a51010" stroke-width="1.5"/>
  <!-- Lichtreflectie op vinger -->
  <path d="M 17,6 C 17,4 19,3 21,3 L 21,36" stroke="rgba(255,255,255,0.2)" stroke-width="3" stroke-linecap="round" fill="none"/>
  <!-- #1 tekst -->
  <text x="22" y="28" text-anchor="middle" fill="white" font-size="11" font-weight="900" font-family="Arial Black,Arial,sans-serif" letter-spacing="-0.5">#1</text>
  <!-- Knokkelstreepjes -->
  <line x1="16" y1="43" x2="16" y2="47" stroke="#a51010" stroke-width="1.5" stroke-linecap="round"/>
  <line x1="22" y1="42" x2="22" y2="47" stroke="#a51010" stroke-width="1.5" stroke-linecap="round"/>
  <line x1="28" y1="43" x2="28" y2="47" stroke="#a51010" stroke-width="1.5" stroke-linecap="round"/>
</svg>
